<svg width="1696" height="398" viewBox="0 0 1696 398" fill="none" xmlns="http://www.w3.org/2000/svg">
<path d="M903.086 103.957C905 106 905 106 905 110C903.3 112.415 901.586 114.626 899.688 116.875C898.581 118.22 897.476 119.565 896.371 120.91C895.526 121.931 895.526 121.931 894.664 122.973C892.141 126.046 889.695 129.178 887.25 132.313C882.87 137.905 878.451 143.465 874 149C870.998 147.632 868.744 146.02 866.25 143.875C847.991 129.525 819.132 119.906 796 122C788.895 123.068 782.572 124.308 777 129C776.465 129.437 775.93 129.874 775.379 130.324C773.054 133.149 773.53 135.981 773.668 139.5C774.184 143.386 775.256 145.19 778 148C785.62 152.99 794.263 154.837 802.997 156.88C807.035 157.827 811.062 158.821 815.09 159.809C815.875 160 816.66 160.192 817.47 160.389C845.777 167.313 881.879 177.79 898.312 203.938C908.343 221.851 908.999 247.575 903.905 267.175C900.47 278.889 894.79 288.45 886 297C885.359 297.661 884.719 298.323 884.059 299.004C872.924 309.79 858.847 317.006 844 321C842.921 321.346 842.921 321.346 841.82 321.699C811.071 331.003 770.178 323.92 742 310C741.316 309.664 740.632 309.328 739.927 308.982C725.434 301.783 713.403 292.403 702 281C702.228 276.419 704.369 273.86 707.188 270.375C708.095 269.235 708.999 268.093 709.902 266.949C710.396 266.326 710.889 265.702 711.398 265.06C714.429 261.163 717.332 257.17 720.25 253.188C724.469 247.435 728.707 241.698 733 236C736.972 238.469 740.491 241.227 744.062 244.25C764.93 261.47 791.658 272.595 819 270C827.925 268.565 838.136 266.161 844.438 259.375C846.746 255.866 847.208 253.48 847.523 249.266C846.708 245.736 844.611 243.387 842 241C830.864 234.815 817.573 232.316 805.295 229.346C775.847 222.197 738.2 211.605 720.812 184.313C715.007 173.748 712.154 164.401 712.438 152.313C712.456 151.091 712.474 149.869 712.492 148.61C713 129.351 717.578 110.411 731.469 96.2344C780.764 52.7205 855.243 66.1104 903.086 103.957Z" fill="#3E5065"/>
<path d="M169 77C191.11 77 213.22 77 236 77C240.5 85.9994 240.5 85.9994 242.204 90.3665C242.59 91.35 242.976 92.3335 243.373 93.3468C243.78 94.3938 244.187 95.4408 244.605 96.5195C245.042 97.6336 245.478 98.7477 245.927 99.8956C247.106 102.907 248.281 105.92 249.455 108.933C250.693 112.11 251.937 115.285 253.18 118.461C253.683 119.746 254.186 121.032 254.689 122.317C254.938 122.954 255.187 123.59 255.444 124.246C256.2 126.178 256.956 128.111 257.712 130.044C261.617 140.033 265.551 150.01 269.502 159.981C276.368 177.308 283.19 194.651 290 212C296.628 228.882 303.266 245.76 309.938 262.625C310.619 264.349 311.301 266.073 311.982 267.797C315.077 275.622 318.176 283.446 321.285 291.265C322.708 294.844 324.128 298.424 325.547 302.005C326.218 303.695 326.891 305.386 327.564 307.075C328.485 309.384 329.401 311.694 330.316 314.004C330.59 314.688 330.865 315.372 331.147 316.077C333 320.772 333 320.772 333 323C309.9 323 286.8 323 263 323C260.917 316.998 258.834 310.996 256.688 304.812C250.416 286.795 244.016 268.826 237.558 250.875C230.413 231.008 223.38 211.104 216.405 191.177C212.049 178.741 207.603 166.346 203 154C200.441 159.554 198.159 165.096 196.266 170.91C196.027 171.631 195.788 172.352 195.542 173.095C194.774 175.416 194.012 177.739 193.25 180.062C192.713 181.689 192.175 183.316 191.637 184.942C190.572 188.163 189.509 191.385 188.448 194.607C186.606 200.201 184.742 205.789 182.875 211.375C180.937 217.183 179.002 222.992 177.074 228.804C176.169 231.533 175.262 234.261 174.355 236.989C173.917 238.31 173.479 239.631 173.041 240.952C172.429 242.802 171.814 244.651 171.199 246.5C170.847 247.562 170.495 248.624 170.132 249.719C169.301 252.128 168.439 254.508 167.536 256.889C165.989 260.982 164.592 265.115 163.223 269.27C162.97 270.031 162.717 270.793 162.457 271.578C161.39 274.794 160.327 278.011 159.264 281.229C154.175 296.613 154.175 296.613 151.934 302.699C149.483 309.417 147.261 316.216 145 323C121.9 323 98.8 323 75 323C75.6587 319.706 76.1957 317.194 77.3726 314.171C77.6522 313.447 77.9319 312.722 78.22 311.976C78.6796 310.805 78.6796 310.805 79.1484 309.609C79.4729 308.773 79.7974 307.936 80.1317 307.073C81.209 304.298 82.292 301.524 83.375 298.75C84.1323 296.801 84.8892 294.852 85.6458 292.903C87.2531 288.764 88.8627 284.626 90.4741 280.488C94.309 270.641 98.1303 260.788 101.952 250.935C103.159 247.823 104.368 244.712 105.578 241.601C108.966 232.878 112.34 224.152 115.61 215.384C119.741 204.316 123.974 193.287 128.188 182.25C128.654 181.028 129.12 179.805 129.601 178.546C135.244 163.763 140.915 148.995 146.735 134.281C148.851 128.933 150.932 123.578 152.938 118.188C154.924 112.851 156.94 107.526 158.992 102.215C159.261 101.519 159.53 100.823 159.807 100.106C160.641 97.9454 161.477 95.7852 162.312 93.625C162.586 92.9179 162.859 92.2108 163.14 91.4823C163.922 89.4591 164.705 87.4365 165.488 85.4141C165.948 84.2276 166.407 83.0412 166.88 81.8188C168 79 168 79 169 77Z" fill="#3E5065"/>
<path d="M1142 77C1207.34 77 1272.68 77 1340 77C1340 94.16 1340 111.32 1340 129C1317.23 129 1294.46 129 1271 129C1271 193.02 1271 257.04 1271 323C1252.19 323 1233.38 323 1214 323C1214 258.98 1214 194.96 1214 129C1190.24 129 1166.48 129 1142 129C1142 111.84 1142 94.68 1142 77Z" fill="#3E5065"/>
<path d="M1425 174C1483.41 174 1541.82 174 1602 174C1602 192.15 1602 210.3 1602 229C1543.59 229 1485.18 229 1425 229C1425 210.85 1425 192.7 1425 174Z" fill="#63AD8F"/>
<path d="M995 174C1015.46 174 1035.92 174 1057 174C1057 223.17 1057 272.34 1057 323C1036.54 323 1016.08 323 995 323C995 273.83 995 224.66 995 174Z" fill="#3E5065"/>
<path d="M1425 271C1483.08 271 1541.16 271 1601 271C1601 288.16 1601 305.32 1601 323C1542.92 323 1484.84 323 1425 323C1425 305.84 1425 288.68 1425 271Z" fill="#3E5065"/>
<path d="M1425 77C1483.08 77 1541.16 77 1601 77C1601 94.16 1601 111.32 1601 129C1542.92 129 1484.84 129 1425 129C1425 111.84 1425 94.68 1425 77Z" fill="#3E5065"/>
<path fill-rule="evenodd" clip-rule="evenodd" d="M481.125 76.8125L418 77V323H477V236L511 236.062L512.595 236.067C517.076 236.078 521.558 236.09 526.039 236.095C527.401 236.095 528.763 236.096 530.125 236.098C531.183 236.101 532.242 236.109 533.301 236.117C538.428 236.154 543.563 236.192 548.672 235.79C566.993 233.571 585.123 223.674 596.949 209.578L599 207C611.643 191.724 617.741 173.773 617.156 153.945L617 151C616.302 131.854 606.984 113.443 593.848 99.7578C577.879 84.9154 557.995 76.7093 536.142 76.6267L532.661 76.6594C528.672 76.6583 524.683 76.6585 520.694 76.6833C518.074 76.6997 515.455 76.7091 512.836 76.7137C511.626 76.7145 510.803 76.715 509.98 76.7158C508.228 76.7176 506.475 76.7205 500.989 76.7297L481.125 76.8125ZM498.654 128.741C491.435 128.795 484.219 128.895 477 129V184L477.968 184.011C484.49 184.084 491.011 184.157 497.533 184.195L498.225 184.199C501.494 184.218 504.763 184.236 508.032 184.275C511.45 184.319 514.867 184.358 518.285 184.373L522.215 184.391C532.69 184.564 540.686 184.031 548.75 176.875C554.344 170.72 557.279 164.694 557.5 156.312C557.104 147.858 554.298 142.302 548.503 136.21C541.511 130.037 533.031 128.43 523.95 128.433L520.359 128.512C516.486 128.534 512.614 128.562 508.742 128.623C505.379 128.677 502.017 128.715 498.654 128.741Z" fill="#3E5065"/>
<path d="M995 77C1015.46 77 1035.92 77 1057 77C1057 96.47 1057 115.94 1057 136C1048.47 128.688 1040.21 121.287 1032.32 113.298C1029.67 110.629 1027 108.053 1024.12 105.625C1019.54 101.73 1015.38 97.4116 1011.16 93.1357C1007.43 89.3816 1003.64 85.7877 999.551 82.4297C998 81 998 81 995 77Z" fill="#63AD8F"/>
<path d="M170 264C191.78 264 213.56 264 236 264C229.25 276.376 229.25 276.376 226.555 280.656C225.958 281.608 225.361 282.559 224.746 283.539C224.129 284.516 223.511 285.493 222.875 286.5C222.228 287.529 221.582 288.557 220.916 289.617C218.947 292.747 216.974 295.874 215 299C213.785 300.927 212.57 302.854 211.355 304.781C208.575 309.19 205.789 313.596 203 318C199.227 313.571 196.273 308.763 193.25 303.812C192.106 301.948 190.961 300.083 189.816 298.219C189.207 297.224 188.597 296.228 187.969 295.203C186.226 292.367 184.473 289.538 182.714 286.712C181.232 284.331 179.754 281.948 178.276 279.565C177.551 278.398 176.824 277.231 176.097 276.065C175.075 274.428 174.059 272.786 173.043 271.145C172.455 270.199 171.868 269.254 171.262 268.281C170 266 170 266 170 264Z" fill="#63AD8F"/>
</svg>
