<svg width="313" height="313" viewBox="0 0 313 313" fill="none" xmlns="http://www.w3.org/2000/svg">
<path d="M122 34C144.11 34 166.22 34 189 34C193.5 42.9994 193.5 42.9994 195.204 47.3665C195.59 48.35 195.976 49.3335 196.373 50.3468C196.78 51.3938 197.187 52.4408 197.605 53.5195C198.042 54.6336 198.478 55.7477 198.927 56.8956C200.106 59.907 201.281 62.9196 202.455 65.9328C203.693 69.11 204.937 72.2854 206.18 75.4609C206.683 76.7464 207.186 78.0318 207.689 79.3172C207.938 79.9536 208.187 80.5901 208.444 81.2458C209.2 83.1783 209.956 85.1111 210.712 87.0439C214.617 97.0327 218.551 107.01 222.502 116.981C229.368 134.308 236.19 151.651 243 169C249.628 185.882 256.266 202.76 262.938 219.625C263.619 221.349 264.301 223.073 264.982 224.797C268.077 232.622 271.176 240.446 274.285 248.265C275.708 251.844 277.128 255.424 278.547 259.005C279.218 260.695 279.891 262.386 280.564 264.075C281.485 266.384 282.401 268.694 283.316 271.004C283.59 271.688 283.865 272.372 284.147 273.077C286 277.772 286 277.772 286 280C262.9 280 239.8 280 216 280C213.917 273.998 211.834 267.996 209.688 261.812C203.416 243.795 197.016 225.826 190.558 207.875C183.413 188.008 176.38 168.104 169.405 148.177C165.049 135.741 160.603 123.346 156 111C153.441 116.554 151.159 122.096 149.266 127.91C149.027 128.631 148.788 129.352 148.542 130.095C147.774 132.416 147.012 134.739 146.25 137.062C145.713 138.689 145.175 140.316 144.637 141.942C143.572 145.163 142.509 148.385 141.448 151.607C139.606 157.201 137.742 162.789 135.875 168.375C133.937 174.183 132.002 179.992 130.074 185.804C129.169 188.533 128.262 191.261 127.355 193.989C126.917 195.31 126.479 196.631 126.041 197.952C125.429 199.802 124.814 201.651 124.199 203.5C123.847 204.562 123.495 205.624 123.132 206.719C122.301 209.128 121.439 211.508 120.536 213.889C118.989 217.982 117.592 222.115 116.223 226.27C115.97 227.031 115.717 227.793 115.457 228.578C114.39 231.794 113.327 235.011 112.264 238.229C107.175 253.613 107.175 253.613 104.934 259.699C102.483 266.417 100.261 273.216 98 280C74.9 280 51.8 280 28 280C28.6587 276.706 29.1957 274.194 30.3726 271.171C30.6522 270.447 30.9319 269.722 31.22 268.976C31.6796 267.805 31.6796 267.805 32.1484 266.609C32.4729 265.773 32.7974 264.936 33.1317 264.073C34.209 261.298 35.292 258.524 36.375 255.75C37.1323 253.801 37.8892 251.852 38.6458 249.903C40.2531 245.764 41.8627 241.626 43.4741 237.488C47.309 227.641 51.1303 217.788 54.9517 207.935C56.1592 204.823 57.3683 201.712 58.5776 198.601C61.9661 189.878 65.3405 181.152 68.61 172.384C72.7406 161.316 76.9744 150.287 81.1875 139.25C81.654 138.028 82.1205 136.805 82.6011 135.546C88.2438 120.763 93.9153 105.995 99.7354 91.2815C101.851 85.9332 103.932 80.5779 105.938 75.1875C107.924 69.8507 109.94 64.5265 111.992 59.2148C112.261 58.5189 112.53 57.823 112.807 57.1059C113.641 54.9454 114.477 52.7852 115.312 50.625C115.586 49.9179 115.859 49.2108 116.14 48.4823C116.922 46.4591 117.705 44.4365 118.488 42.4141C118.948 41.2276 119.407 40.0412 119.88 38.8188C121 36 121 36 122 34Z" fill="#3E5065"/>
<path d="M123 221C144.78 221 166.56 221 189 221C182.25 233.376 182.25 233.376 179.555 237.656C178.958 238.608 178.361 239.559 177.746 240.539C177.129 241.516 176.511 242.493 175.875 243.5C175.228 244.529 174.582 245.557 173.916 246.617C171.947 249.747 169.974 252.874 168 256C166.785 257.927 165.57 259.854 164.355 261.781C161.575 266.19 158.789 270.596 156 275C152.227 270.571 149.273 265.763 146.25 260.812C145.106 258.948 143.961 257.083 142.816 255.219C142.207 254.224 141.597 253.228 140.969 252.203C139.226 249.367 137.473 246.538 135.714 243.712C134.232 241.331 132.754 238.948 131.276 236.565C130.551 235.398 129.824 234.231 129.097 233.065C128.075 231.428 127.059 229.786 126.043 228.145C125.455 227.199 124.868 226.254 124.262 225.281C123 223 123 223 123 221Z" fill="#63AD8F"/>
</svg>
